<svg width="110" height="454" viewBox="0 0 110 454" fill="none" xmlns="http://www.w3.org/2000/svg">
<g clip-path="url(#clip0_4113_35426)">
<path d="M106.858 247.419C108.049 247.419 109.019 248.385 109.019 249.582C109.019 250.779 108.049 251.74 106.858 251.74C105.667 251.74 104.697 250.774 104.697 249.582C104.697 248.39 105.667 247.419 106.858 247.419Z" fill="#EF4F59" stroke="#EF4F59" stroke-width="0.5" stroke-miterlimit="10"/>
<path d="M106.794 162.77C108.005 162.77 108.985 161.789 108.985 160.577C108.985 159.364 108.005 158.384 106.794 158.384C105.583 158.384 104.603 159.364 104.603 160.577C104.603 161.789 105.583 162.77 106.794 162.77Z" fill="#EF4F59" stroke="#EF4F59" stroke-width="0.5" stroke-miterlimit="10"/>
<path d="M102.457 303.52C103.683 303.52 104.678 304.516 104.678 305.738C104.678 306.96 103.683 307.962 102.457 307.962C101.23 307.962 100.235 306.965 100.235 305.738C100.235 304.511 101.23 303.52 102.457 303.52Z" fill="#EF4F59" stroke="#EF4F59" stroke-width="0.5" stroke-miterlimit="10"/>
<path d="M81.0074 207.582C82.2337 207.582 83.2287 208.578 83.2287 209.806C83.2287 211.033 82.2337 212.029 81.0074 212.029C79.7812 212.029 78.7861 211.033 78.7861 209.806C78.7861 208.578 79.7812 207.582 81.0074 207.582Z" fill="#EF4F59" stroke="#EF4F59" stroke-width="0.5" stroke-miterlimit="10"/>
<path d="M66.1067 260.046C67.3681 260.046 68.3832 261.067 68.3832 262.324C68.3832 263.582 67.363 264.603 66.1067 264.603C64.8503 264.603 63.8301 263.582 63.8301 262.324C63.8301 261.067 64.8503 260.046 66.1067 260.046Z" fill="#EF4F59" stroke="#EF4F59" stroke-width="0.5" stroke-miterlimit="10"/>
<path d="M95.1545 111.992C96.431 111.992 97.4663 113.028 97.4663 114.306C97.4663 115.584 96.431 116.62 95.1545 116.62C93.878 116.62 92.8428 115.584 92.8428 114.306C92.8428 113.028 93.878 111.992 95.1545 111.992Z" fill="#EF4F59" stroke="#EF4F59" stroke-width="0.5" stroke-miterlimit="10"/>
<path d="M63.4174 170.703C64.6939 170.703 65.7342 169.667 65.7342 168.384C65.7342 167.101 64.6989 166.065 63.4174 166.065C62.1359 166.065 61.1006 167.101 61.1006 168.384C61.1006 169.667 62.1359 170.703 63.4174 170.703Z" fill="#EF4F59" stroke="#EF4F59" stroke-width="0.5" stroke-miterlimit="10"/>
<path d="M70.5335 319.537C71.8301 319.537 72.8804 320.593 72.8804 321.891C72.8804 323.189 71.8301 324.24 70.5335 324.24C69.2369 324.24 68.1865 323.189 68.1865 321.891C68.1865 320.593 69.2369 319.537 70.5335 319.537Z" fill="#EF4F59" stroke="#EF4F59" stroke-width="0.5" stroke-miterlimit="10"/>
<path d="M40.8525 214.831C42.1592 214.831 43.2246 215.892 43.2246 217.205C43.2246 218.518 42.1642 219.58 40.8525 219.58C39.5409 219.58 38.4805 218.518 38.4805 217.205C38.4805 215.892 39.5409 214.831 40.8525 214.831Z" fill="#EF4F59" stroke="#EF4F59" stroke-width="0.5" stroke-miterlimit="10"/>
<path d="M56.075 124.845C57.4168 124.845 58.5073 125.936 58.5073 127.28C58.5073 128.623 57.4168 129.714 56.075 129.714C54.7331 129.714 53.6426 128.623 53.6426 127.28C53.6426 125.936 54.7331 124.845 56.075 124.845Z" fill="#EF4F59" stroke="#EF4F59" stroke-width="0.5" stroke-miterlimit="10"/>
<path d="M33.787 276.209C35.1339 276.209 36.2244 275.117 36.2244 273.769C36.2244 272.421 35.1339 271.329 33.787 271.329C32.4402 271.329 31.3496 272.421 31.3496 273.769C31.3496 275.117 32.4402 276.209 33.787 276.209Z" fill="#EF4F59" stroke="#EF4F59" stroke-width="0.5" stroke-miterlimit="10"/>
<path d="M91.3402 373.922C92.6971 373.922 93.7927 375.019 93.7927 376.372C93.7927 377.725 92.6971 378.827 91.3402 378.827C89.9833 378.827 88.8877 377.73 88.8877 376.372C88.8877 375.013 89.9833 373.922 91.3402 373.922Z" fill="#EF4F59" stroke="#EF4F59" stroke-width="0.5" stroke-miterlimit="10"/>
<path d="M82.9574 82.0552C84.3294 82.0552 85.445 80.9434 85.445 79.5651C85.445 78.1867 84.3344 77.075 82.9574 77.075C81.5804 77.075 80.4697 78.1867 80.4697 79.5651C80.4697 80.9434 81.5804 82.0552 82.9574 82.0552Z" fill="#EF4F59" stroke="#EF4F59" stroke-width="0.5" stroke-miterlimit="10"/>
<path d="M29.6305 175.196C30.4346 174.079 30.1833 172.519 29.0676 171.709C27.9519 170.904 26.394 171.156 25.5849 172.273C24.7808 173.39 25.0321 174.949 26.1477 175.759C27.2634 176.564 28.8214 176.312 29.6305 175.196Z" fill="#EF4F59" stroke="#EF4F59" stroke-width="0.5" stroke-miterlimit="10"/>
<path d="M46.1545 335.66C47.5416 335.66 48.6723 334.533 48.6723 333.139C48.6723 331.746 47.5466 330.624 46.1545 330.624C44.7624 330.624 43.6367 331.751 43.6367 333.139C43.6367 334.528 44.7624 335.66 46.1545 335.66Z" fill="#EF4F59" stroke="#EF4F59" stroke-width="0.5" stroke-miterlimit="10"/>
<path d="M12.8853 224.148C14.3025 224.148 15.4483 225.295 15.4483 226.713C15.4483 228.132 14.3025 229.279 12.8853 229.279C11.4681 229.279 10.3223 228.132 10.3223 226.713C10.3223 225.295 11.4681 224.148 12.8853 224.148Z" fill="#EF4F59" stroke="#EF4F59" stroke-width="0.5" stroke-miterlimit="10"/>
<path d="M38.5663 113.682C40.0086 113.682 41.1796 114.854 41.1796 116.293C41.1796 117.732 40.0086 118.904 38.5663 118.904C37.1239 118.904 35.958 117.732 35.958 116.293C35.958 114.854 37.129 113.682 38.5663 113.682Z" fill="#EF4F59" stroke="#EF4F59" stroke-width="0.5" stroke-miterlimit="10"/>
<path d="M14.1617 280.143C15.6141 280.143 16.7951 281.325 16.7951 282.779C16.7951 284.232 15.6141 285.415 14.1617 285.415C12.7093 285.415 11.5283 284.232 11.5283 282.779C11.5283 281.325 12.7093 280.143 14.1617 280.143Z" fill="#EF4F59" stroke="#EF4F59" stroke-width="0.5" stroke-miterlimit="10"/>
<path d="M70.7344 386.508C72.1969 386.508 73.3829 385.321 73.3829 383.857C73.3829 382.393 72.1969 381.206 70.7344 381.206C69.272 381.206 68.0859 382.393 68.0859 383.857C68.0859 385.321 69.272 386.508 70.7344 386.508Z" fill="#EF4F59" stroke="#EF4F59" stroke-width="0.5" stroke-miterlimit="10"/>
<path d="M76.0969 65.5196C77.5844 65.5196 78.7856 64.3123 78.7856 62.8283C78.7856 61.3443 77.5794 60.137 76.0969 60.137C74.6143 60.137 73.4082 61.3443 73.4082 62.8283C73.4082 64.3123 74.6143 65.5196 76.0969 65.5196Z" fill="#EF4F59" stroke="#EF4F59" stroke-width="0.5" stroke-miterlimit="10"/>
<path d="M12.9056 175.392C13.2976 173.953 12.4483 172.469 11.011 172.077C9.57364 171.684 8.0911 172.534 7.6991 173.973C7.30711 175.412 8.15643 176.896 9.59374 177.288C11.0311 177.681 12.5136 176.83 12.9056 175.392Z" fill="#EF4F59" stroke="#EF4F59" stroke-width="0.5" stroke-miterlimit="10"/>
<path d="M32.7117 334.915C34.2043 334.915 35.4205 336.132 35.4205 337.626C35.4205 339.121 34.2043 340.338 32.7117 340.338C31.2191 340.338 30.0029 339.121 30.0029 337.626C30.0029 336.132 31.2191 334.915 32.7117 334.915Z" fill="#EF4F59" stroke="#EF4F59" stroke-width="0.5" stroke-miterlimit="10"/>
<path d="M3.9551 240.542C5.38236 239.964 6.07087 238.339 5.49293 236.91C4.91499 235.481 3.29173 234.792 1.86447 235.371C0.437203 235.949 -0.2513 237.574 0.326641 239.003C0.904581 240.431 2.52784 241.121 3.9551 240.542Z" fill="#EF4F59" stroke="#EF4F59" stroke-width="0.5" stroke-miterlimit="10"/>
<path d="M106.1 419.373C107.648 419.373 108.904 418.115 108.904 416.566C108.904 415.016 107.648 413.759 106.1 413.759C104.552 413.759 103.296 415.016 103.296 416.566C103.296 418.115 104.552 419.373 106.1 419.373Z" fill="#EF4F59" stroke="#EF4F59" stroke-width="0.5" stroke-miterlimit="10"/>
<path d="M36.9326 113.29C37.1839 111.75 36.1386 110.302 34.6008 110.05C33.0629 109.804 31.6156 110.845 31.3693 112.384C31.118 113.924 32.1634 115.372 33.7012 115.624C35.239 115.87 36.6864 114.829 36.9326 113.29Z" fill="#EF4F59" stroke="#EF4F59" stroke-width="0.5" stroke-miterlimit="10"/>
<path d="M18.409 301.351C19.5297 300.23 19.5297 298.408 18.409 297.287C17.2883 296.165 15.469 296.165 14.3483 297.287C13.2276 298.408 13.2276 300.23 14.3483 301.351C15.469 302.473 17.2883 302.473 18.409 301.351Z" fill="#EF4F59" stroke="#EF4F59" stroke-width="0.5" stroke-miterlimit="10"/>
<path d="M57.2768 367.835C57.5331 366.265 56.4677 364.781 54.8947 364.53C53.3267 364.273 51.8442 365.34 51.5879 366.914C51.3316 368.489 52.397 369.968 53.97 370.224C55.538 370.481 57.0205 369.414 57.2718 367.84L57.2768 367.835Z" fill="#EF4F59" stroke="#EF4F59" stroke-width="0.5" stroke-miterlimit="10"/>
<path d="M86.2835 60.4086C86.6554 58.8391 85.6805 57.2645 84.1125 56.8973C82.5445 56.5251 80.9715 57.501 80.5996 59.0705C80.2277 60.64 81.2027 62.2146 82.7707 62.5818C84.3387 62.9541 85.9117 61.9782 86.2785 60.4086H86.2835Z" fill="#EF4F59" stroke="#EF4F59" stroke-width="0.5" stroke-miterlimit="10"/>
<path d="M14.9607 181.604C15.217 180.005 14.1365 178.501 12.5384 178.239C10.9403 177.983 9.43761 179.064 9.17628 180.664C8.91998 182.263 10.0005 183.768 11.5986 184.029C13.1967 184.286 14.6994 183.204 14.9607 181.604Z" fill="#EF4F59" stroke="#EF4F59" stroke-width="0.5" stroke-miterlimit="10"/>
<path d="M18.3532 252.812C19.886 252.143 20.5896 250.357 19.9212 248.822C19.2528 247.288 17.4687 246.584 15.9359 247.253C14.4031 247.922 13.6995 249.703 14.3679 251.242C15.0363 252.776 16.8204 253.481 18.3532 252.812Z" fill="#EF4F59" stroke="#EF4F59" stroke-width="0.5" stroke-miterlimit="10"/>
<path d="M49.4614 119.774C49.8484 118.139 48.8382 116.504 47.2049 116.117C45.5716 115.729 43.9383 116.741 43.5513 118.376C43.1644 120.01 44.1745 121.645 45.8078 122.033C47.4411 122.42 49.0744 121.409 49.4614 119.774Z" fill="#EF4F59" stroke="#EF4F59" stroke-width="0.5" stroke-miterlimit="10"/>
<path d="M95.8122 391.016C97.3701 390.372 98.1089 388.586 97.4656 387.026C96.8224 385.472 95.0383 384.733 93.4804 385.376C91.9224 386.02 91.1837 387.806 91.8269 389.366C92.4702 390.92 94.2543 391.66 95.8122 391.016Z" fill="#EF4F59" stroke="#EF4F59" stroke-width="0.5" stroke-miterlimit="10"/>
<path d="M48.5821 320.663C48.8535 318.978 47.7127 317.394 46.0291 317.122C44.3455 316.845 42.7625 317.992 42.4911 319.672C42.2197 321.358 43.3605 322.942 45.0441 323.214C46.7276 323.491 48.3107 322.344 48.5821 320.658V320.663Z" fill="#EF4F59" stroke="#EF4F59" stroke-width="0.5" stroke-miterlimit="10"/>
<path d="M107.864 77.5075C109.603 77.5075 111.015 76.0939 111.015 74.3534C111.015 72.6128 109.603 71.1992 107.864 71.1992C106.125 71.1992 104.713 72.6128 104.713 74.3534C104.713 76.0939 106.125 77.5075 107.864 77.5075Z" fill="#EF4F59" stroke="#EF4F59" stroke-width="0.5" stroke-miterlimit="10"/>
<path d="M40.9131 194.196C41.1946 192.475 40.0236 190.851 38.3048 190.569C36.5861 190.287 34.9628 191.459 34.6814 193.18C34.4 194.9 35.5709 196.525 37.2897 196.807C39.0084 197.088 40.6317 195.916 40.9131 194.196Z" fill="#EF4F59" stroke="#EF4F59" stroke-width="0.5" stroke-miterlimit="10"/>
<path d="M79.4442 139.645C81.0977 138.961 81.8817 137.064 81.1982 135.409C80.5147 133.754 78.62 132.969 76.9666 133.653C75.3132 134.338 74.5292 136.234 75.2127 137.889C75.8962 139.544 77.7908 140.329 79.4442 139.645Z" fill="#EF4F59" stroke="#EF4F59" stroke-width="0.5" stroke-miterlimit="10"/>
<path d="M63.2315 261.836C63.518 260.061 62.3169 258.385 60.5378 258.099C58.7638 257.807 57.0903 259.014 56.8038 260.795C56.5173 262.571 57.7235 264.246 59.4975 264.533C61.2715 264.819 62.9451 263.612 63.2315 261.836Z" fill="#EF4F59" stroke="#EF4F59" stroke-width="0.5" stroke-miterlimit="10"/>
<path d="M102.672 333.924C102.964 332.138 101.752 330.458 99.9683 330.166C98.1842 329.875 96.5057 331.087 96.2142 332.873C95.9227 334.654 97.1339 336.339 98.918 336.631C100.702 336.917 102.381 335.71 102.672 333.924Z" fill="#EF4F59" stroke="#EF4F59" stroke-width="0.5" stroke-miterlimit="10"/>
<path d="M99.5008 202.365C100.817 201.047 100.817 198.914 99.5008 197.596C98.1841 196.278 96.0532 196.278 94.7365 197.596C93.4198 198.914 93.4198 201.047 94.7365 202.365C96.0532 203.683 98.1841 203.683 99.5008 202.365Z" fill="#EF4F59" stroke="#EF4F59" stroke-width="0.5" stroke-miterlimit="10"/>
<path d="M106.899 249.884L158.24 244.013C158.406 243.993 158.526 243.842 158.511 243.676C158.491 243.51 158.34 243.39 158.175 243.405L106.828 249.275C106.662 249.295 106.542 249.446 106.557 249.617C106.577 249.788 106.728 249.904 106.899 249.884Z" fill="#EF4F59" stroke="#EF4F59" stroke-width="0.5" stroke-miterlimit="10"/>
<path d="M107.14 249.718L129.066 204.74C129.142 204.589 129.077 204.403 128.926 204.327C128.775 204.252 128.589 204.317 128.514 204.468L106.587 249.441C106.512 249.592 106.577 249.778 106.728 249.854C106.879 249.929 107.065 249.864 107.14 249.713V249.718Z" fill="#EF4F59" stroke="#EF4F59" stroke-width="0.5" stroke-miterlimit="10"/>
<path d="M139.484 286.008L107.09 249.376C106.974 249.25 106.783 249.24 106.657 249.351C106.532 249.461 106.517 249.658 106.632 249.783L139.032 286.416C139.148 286.536 139.344 286.536 139.464 286.416C139.575 286.305 139.585 286.124 139.489 286.003L139.484 286.008Z" fill="#EF4F59" stroke="#EF4F59" stroke-width="0.5" stroke-miterlimit="10"/>
<path d="M106.808 160.879L155.35 158.61C155.521 158.605 155.652 158.459 155.642 158.288C155.637 158.117 155.491 157.986 155.32 157.996L106.783 160.265C106.612 160.27 106.482 160.416 106.492 160.582C106.497 160.753 106.643 160.884 106.808 160.874V160.879Z" fill="#EF4F59" stroke="#EF4F59" stroke-width="0.5" stroke-miterlimit="10"/>
<path d="M129.067 204.468L107.07 160.431C106.99 160.285 106.804 160.225 106.658 160.305C106.512 160.381 106.457 160.557 106.527 160.703L128.524 204.74C128.6 204.891 128.786 204.951 128.936 204.876C129.087 204.8 129.148 204.614 129.072 204.463L129.067 204.468Z" fill="#EF4F59" stroke="#EF4F59" stroke-width="0.5" stroke-miterlimit="10"/>
<path d="M81.0372 210.112L128.82 204.911C128.986 204.876 129.092 204.72 129.062 204.549C129.031 204.403 128.901 204.297 128.755 204.302L80.9719 209.499C80.806 209.519 80.6854 209.67 80.7005 209.836C80.7206 210.002 80.8714 210.123 81.0372 210.107V210.112Z" fill="#EF4F59" stroke="#EF4F59" stroke-width="0.5" stroke-miterlimit="10"/>
<path d="M102.597 306.015L139.394 286.486C139.54 286.401 139.595 286.22 139.51 286.069C139.429 285.923 139.253 285.872 139.102 285.943L102.3 305.471C102.154 305.552 102.094 305.738 102.175 305.884C102.255 306.03 102.441 306.09 102.587 306.01L102.597 306.015Z" fill="#EF4F59" stroke="#EF4F59" stroke-width="0.5" stroke-miterlimit="10"/>
<path d="M102.758 305.768L107.165 249.607C107.165 249.436 107.034 249.3 106.864 249.295C106.708 249.295 106.577 249.406 106.552 249.557L102.145 305.723C102.145 305.894 102.275 306.03 102.446 306.03C102.597 306.03 102.733 305.919 102.753 305.768H102.758Z" fill="#EF4F59" stroke="#EF4F59" stroke-width="0.5" stroke-miterlimit="10"/>
<path d="M107.12 249.416L81.263 209.64C81.1675 209.499 80.9766 209.463 80.8359 209.559C80.7052 209.65 80.66 209.831 80.7504 209.972L106.612 249.748C106.713 249.879 106.909 249.909 107.039 249.803C107.16 249.713 107.195 249.547 107.125 249.416H107.12Z" fill="#EF4F59" stroke="#EF4F59" stroke-width="0.5" stroke-miterlimit="10"/>
<path d="M153.697 331.902L102.602 305.471C102.447 305.406 102.271 305.471 102.2 305.632C102.14 305.773 102.195 305.934 102.321 306.015L153.421 332.45C153.572 332.521 153.753 332.46 153.833 332.304C153.903 332.158 153.843 331.982 153.702 331.907L153.697 331.902Z" fill="#EF4F59" stroke="#EF4F59" stroke-width="0.5" stroke-miterlimit="10"/>
<path d="M107.05 160.738L139.786 110.06C139.877 109.919 139.841 109.728 139.696 109.632C139.555 109.542 139.364 109.577 139.269 109.723L106.532 160.401C106.442 160.541 106.477 160.733 106.622 160.828C106.763 160.919 106.954 160.884 107.05 160.738Z" fill="#EF4F59" stroke="#EF4F59" stroke-width="0.5" stroke-miterlimit="10"/>
<path d="M81.2738 209.952L107.065 160.718C107.14 160.567 107.075 160.386 106.924 160.305C106.779 160.235 106.603 160.285 106.522 160.431L80.731 209.665C80.6506 209.811 80.7059 209.997 80.8617 210.077C81.0074 210.158 81.1934 210.102 81.2738 209.947V209.952Z" fill="#EF4F59" stroke="#EF4F59" stroke-width="0.5" stroke-miterlimit="10"/>
<path d="M106.773 249.29L66.0157 262.038C65.8549 262.088 65.7644 262.259 65.8147 262.42C65.8649 262.586 66.0408 262.671 66.1966 262.621L106.949 249.874C107.11 249.818 107.195 249.647 107.14 249.486C107.085 249.336 106.924 249.245 106.768 249.285L106.773 249.29Z" fill="#EF4F59" stroke="#EF4F59" stroke-width="0.5" stroke-miterlimit="10"/>
<path d="M102.693 305.542L66.3478 262.123C66.2372 261.993 66.0462 261.977 65.9156 262.088C65.7849 262.199 65.7698 262.39 65.8753 262.521L102.22 305.939C102.331 306.07 102.522 306.08 102.652 305.975C102.783 305.864 102.798 305.673 102.693 305.542Z" fill="#EF4F59" stroke="#EF4F59" stroke-width="0.5" stroke-miterlimit="10"/>
<path d="M80.7107 209.72L65.8149 262.239C65.7697 262.405 65.8652 262.576 66.026 262.621C66.1868 262.667 66.3577 262.571 66.408 262.41L81.3038 209.886C81.349 209.725 81.2535 209.554 81.0927 209.509C80.9319 209.464 80.761 209.559 80.7107 209.715V209.72Z" fill="#EF4F59" stroke="#EF4F59" stroke-width="0.5" stroke-miterlimit="10"/>
<path d="M107.09 160.496L95.4509 114.236C95.3956 114.075 95.2197 113.994 95.0589 114.049C94.9182 114.1 94.8328 114.241 94.8579 114.386L106.497 160.647C106.537 160.808 106.708 160.909 106.869 160.874C107.03 160.833 107.13 160.662 107.095 160.501L107.09 160.496Z" fill="#EF4F59" stroke="#EF4F59" stroke-width="0.5" stroke-miterlimit="10"/>
<path d="M63.4731 168.686L106.849 160.874C107.015 160.843 107.125 160.682 107.095 160.516C107.065 160.35 106.904 160.24 106.738 160.27L63.3625 168.082C63.1967 168.112 63.0861 168.273 63.1163 168.439C63.1464 168.605 63.3073 168.716 63.4731 168.686Z" fill="#EF4F59" stroke="#EF4F59" stroke-width="0.5" stroke-miterlimit="10"/>
<path d="M120.322 358.021L102.753 305.643C102.697 305.482 102.526 305.396 102.366 305.451C102.205 305.507 102.119 305.678 102.17 305.839L119.744 358.217C119.814 358.368 119.99 358.443 120.146 358.378C120.282 358.317 120.357 358.166 120.322 358.021Z" fill="#EF4F59" stroke="#EF4F59" stroke-width="0.5" stroke-miterlimit="10"/>
<path d="M95.1794 114.613L139.55 110.201C139.716 110.186 139.842 110.035 139.822 109.869C139.806 109.703 139.656 109.577 139.49 109.597L95.1191 114.009C94.9533 114.029 94.8327 114.185 94.8528 114.351C94.8729 114.512 95.0136 114.628 95.1744 114.618L95.1794 114.613Z" fill="#EF4F59" stroke="#EF4F59" stroke-width="0.5" stroke-miterlimit="10"/>
<path d="M81.2837 209.69L63.6942 168.268C63.6239 168.113 63.443 168.042 63.2872 168.118C63.1414 168.188 63.066 168.359 63.1264 168.51L80.7158 209.931C80.7862 210.087 80.9671 210.158 81.1229 210.082C81.2687 210.012 81.344 209.841 81.2837 209.69Z" fill="#EF4F59" stroke="#EF4F59" stroke-width="0.5" stroke-miterlimit="10"/>
<path d="M70.6691 322.168L102.597 306.02C102.747 305.944 102.808 305.758 102.732 305.607C102.657 305.456 102.471 305.396 102.32 305.471L70.3927 321.619C70.247 321.71 70.2017 321.896 70.2872 322.042C70.3676 322.173 70.5284 322.228 70.6691 322.168Z" fill="#EF4F59" stroke="#EF4F59" stroke-width="0.5" stroke-miterlimit="10"/>
<path d="M80.9465 209.504L40.7922 216.904C40.6264 216.934 40.5158 217.095 40.546 217.261C40.5761 217.427 40.7369 217.538 40.9028 217.507L81.0571 210.107C81.2229 210.077 81.3335 209.916 81.3033 209.75C81.2732 209.584 81.1124 209.474 80.9465 209.504Z" fill="#EF4F59" stroke="#EF4F59" stroke-width="0.5" stroke-miterlimit="10"/>
<path d="M63.684 168.54L95.4204 114.462C95.5059 114.316 95.4607 114.13 95.3099 114.039C95.1591 113.949 94.9782 114.004 94.8877 114.15L63.1563 168.223C63.0709 168.369 63.1161 168.555 63.2618 168.646C63.4076 168.731 63.5935 168.686 63.684 168.54Z" fill="#EF4F59" stroke="#EF4F59" stroke-width="0.5" stroke-miterlimit="10"/>
<path d="M70.8356 321.866L66.4131 262.304C66.4031 262.138 66.2523 262.008 66.0815 262.023C65.9156 262.033 65.7849 262.184 65.8 262.35L70.2225 321.916C70.2376 322.082 70.3884 322.208 70.5542 322.193C70.715 322.178 70.8407 322.032 70.8306 321.871L70.8356 321.866Z" fill="#EF4F59" stroke="#EF4F59" stroke-width="0.5" stroke-miterlimit="10"/>
<path d="M120.212 357.869L70.7149 321.639C70.5792 321.539 70.3832 321.569 70.2877 321.705C70.1872 321.841 70.2173 322.037 70.3581 322.137L119.855 358.367C120.001 358.458 120.187 358.418 120.277 358.277C120.362 358.146 120.332 357.975 120.217 357.874L120.212 357.869Z" fill="#EF4F59" stroke="#EF4F59" stroke-width="0.5" stroke-miterlimit="10"/>
<path d="M40.5866 217.351L65.84 262.475C65.9305 262.616 66.1215 262.662 66.2622 262.571C66.3929 262.485 66.4381 262.319 66.3728 262.179L41.1142 217.055C41.0238 216.914 40.8328 216.874 40.6871 216.964C40.5564 217.05 40.5112 217.216 40.5765 217.351H40.5866Z" fill="#EF4F59" stroke="#EF4F59" stroke-width="0.5" stroke-miterlimit="10"/>
<path d="M95.3954 114.487L130.816 67.3859C130.916 67.2501 130.891 67.059 130.755 66.9583C130.62 66.8577 130.429 66.8829 130.328 67.0187L94.908 114.12C94.8175 114.266 94.8627 114.452 95.0085 114.542C95.1341 114.623 95.2949 114.598 95.3954 114.487Z" fill="#EF4F59" stroke="#EF4F59" stroke-width="0.5" stroke-miterlimit="10"/>
<path d="M63.1411 168.258L40.5763 217.075C40.506 217.226 40.5763 217.407 40.7221 217.482C40.8728 217.553 41.0538 217.482 41.1291 217.336L63.694 168.52C63.7643 168.369 63.694 168.188 63.5432 168.112C63.3924 168.042 63.2115 168.112 63.1361 168.258H63.1411Z" fill="#EF4F59" stroke="#EF4F59" stroke-width="0.5" stroke-miterlimit="10"/>
<path d="M66.0062 262.038L33.6867 273.482C33.5259 273.537 33.4455 273.714 33.5008 273.875C33.5561 274.035 33.732 274.116 33.8928 274.061L66.2122 262.616C66.373 262.561 66.4535 262.385 66.3982 262.224C66.3429 262.063 66.167 261.982 66.0062 262.038Z" fill="#EF4F59" stroke="#EF4F59" stroke-width="0.5" stroke-miterlimit="10"/>
<path d="M91.5054 376.633L120.191 358.378C120.337 358.287 120.377 358.096 120.287 357.955C120.196 357.814 120.005 357.769 119.865 357.859L91.1787 376.115C91.033 376.206 90.9928 376.397 91.0832 376.538C91.1737 376.684 91.3647 376.724 91.5054 376.633Z" fill="#EF4F59" stroke="#EF4F59" stroke-width="0.5" stroke-miterlimit="10"/>
<path d="M56.1712 127.571L95.2501 114.598C95.4109 114.542 95.4963 114.371 95.4461 114.21C95.3908 114.049 95.2199 113.964 95.0591 114.019L55.9803 126.993C55.8194 127.048 55.734 127.219 55.7893 127.38C55.8446 127.541 56.0154 127.627 56.1762 127.576L56.1712 127.571Z" fill="#EF4F59" stroke="#EF4F59" stroke-width="0.5" stroke-miterlimit="10"/>
<path d="M55.7741 127.335L63.1164 168.444C63.1466 168.61 63.3074 168.721 63.4732 168.691C63.6391 168.661 63.7496 168.5 63.7195 168.334L56.3771 127.229C56.347 127.063 56.1862 126.953 56.0203 126.988C55.8595 127.018 55.7489 127.174 55.7741 127.335Z" fill="#EF4F59" stroke="#EF4F59" stroke-width="0.5" stroke-miterlimit="10"/>
<path d="M70.7747 321.705L34.0277 273.583C33.9171 273.452 33.7262 273.437 33.5955 273.548C33.4799 273.648 33.4498 273.824 33.5402 273.955L70.2872 322.077C70.3877 322.213 70.5837 322.238 70.7144 322.132C70.845 322.032 70.8752 321.836 70.7696 321.705H70.7747Z" fill="#EF4F59" stroke="#EF4F59" stroke-width="0.5" stroke-miterlimit="10"/>
<path d="M95.4452 114.205L83.2482 79.4644C83.1879 79.3034 83.0069 79.2279 82.8512 79.2883C82.7004 79.3436 82.62 79.5147 82.6702 79.6656L94.8673 114.406C94.9226 114.567 95.0985 114.648 95.2593 114.598C95.4201 114.542 95.5005 114.366 95.4503 114.205H95.4452Z" fill="#EF4F59" stroke="#EF4F59" stroke-width="0.5" stroke-miterlimit="10"/>
<path d="M27.6561 174.039L63.4633 168.691C63.6291 168.666 63.7497 168.51 63.7196 168.344C63.6944 168.178 63.5387 168.057 63.3728 168.087L27.5656 173.435C27.3998 173.46 27.2792 173.616 27.3093 173.782C27.3344 173.948 27.4902 174.069 27.6561 174.039Z" fill="#EF4F59" stroke="#EF4F59" stroke-width="0.5" stroke-miterlimit="10"/>
<path d="M91.6262 376.266L70.8153 321.78C70.755 321.619 70.5741 321.544 70.4183 321.604C70.2574 321.665 70.1821 321.846 70.2424 322.002L91.0532 376.482C91.1136 376.643 91.2895 376.724 91.4503 376.658C91.6111 376.598 91.6915 376.427 91.6262 376.261V376.266Z" fill="#EF4F59" stroke="#EF4F59" stroke-width="0.5" stroke-miterlimit="10"/>
<path d="M40.5467 217.165L33.4807 273.734C33.4556 273.9 33.5813 274.056 33.7471 274.076C33.9129 274.096 34.0687 273.975 34.0888 273.809L41.1548 217.241C41.1749 217.075 41.0543 216.924 40.8834 216.904C40.7226 216.884 40.5718 217.004 40.5517 217.165H40.5467Z" fill="#EF4F59" stroke="#EF4F59" stroke-width="0.5" stroke-miterlimit="10"/>
<path d="M144.601 401.011L91.4707 376.1C91.3149 376.035 91.139 376.1 91.0636 376.256C90.9933 376.407 91.0636 376.583 91.2094 376.659L144.34 401.565C144.495 401.63 144.671 401.565 144.747 401.409C144.817 401.258 144.747 401.082 144.601 401.011Z" fill="#EF4F59" stroke="#EF4F59" stroke-width="0.5" stroke-miterlimit="10"/>
<path d="M83.0323 79.8669L130.65 67.5019C130.81 67.4566 130.906 67.2855 130.861 67.1195C130.815 66.9586 130.655 66.863 130.499 66.9032L82.8765 79.2633C82.7157 79.3035 82.6151 79.4745 82.6553 79.6406C82.6956 79.8015 82.8664 79.9021 83.0323 79.8619V79.8669Z" fill="#EF4F59" stroke="#EF4F59" stroke-width="0.5" stroke-miterlimit="10"/>
<path d="M27.3185 173.822L40.5609 217.291C40.6111 217.452 40.782 217.548 40.9428 217.492C41.1036 217.442 41.1991 217.271 41.1439 217.11L27.9015 173.641C27.8512 173.48 27.6803 173.385 27.5195 173.44C27.3587 173.49 27.2632 173.661 27.3185 173.822Z" fill="#EF4F59" stroke="#EF4F59" stroke-width="0.5" stroke-miterlimit="10"/>
<path d="M46.2859 333.421L70.6599 322.168C70.8157 322.097 70.881 321.916 70.8106 321.76C70.7403 321.609 70.5543 321.539 70.4036 321.609L46.0296 332.858C45.8738 332.928 45.8084 333.114 45.8788 333.265C45.9491 333.421 46.1351 333.487 46.2859 333.416V333.421Z" fill="#EF4F59" stroke="#EF4F59" stroke-width="0.5" stroke-miterlimit="10"/>
<path d="M56.3416 127.431L83.2234 79.716C83.2988 79.5651 83.2435 79.384 83.0927 79.3035C82.947 79.2331 82.7761 79.2783 82.6907 79.4192L55.8089 127.134C55.7335 127.285 55.7888 127.466 55.9396 127.546C56.0853 127.622 56.2562 127.572 56.3416 127.431Z" fill="#EF4F59" stroke="#EF4F59" stroke-width="0.5" stroke-miterlimit="10"/>
<path d="M27.8717 173.898L56.3366 127.441C56.422 127.295 56.3818 127.109 56.2361 127.018C56.0903 126.933 55.9044 126.973 55.8139 127.119L27.3491 173.576C27.2636 173.722 27.3039 173.908 27.4496 173.998C27.5953 174.084 27.7813 174.044 27.8717 173.898Z" fill="#EF4F59" stroke="#EF4F59" stroke-width="0.5" stroke-miterlimit="10"/>
<path d="M12.986 227.005L40.9533 217.492C41.1091 217.427 41.1845 217.251 41.1191 217.095C41.0638 216.949 40.903 216.874 40.7573 216.919L12.79 226.432C12.6342 226.497 12.5588 226.673 12.6242 226.829C12.6794 226.975 12.8403 227.05 12.986 227.005Z" fill="#EF4F59" stroke="#EF4F59" stroke-width="0.5" stroke-miterlimit="10"/>
<path d="M46.4561 333.084L34.0882 273.709C34.053 273.543 33.8922 273.432 33.7264 273.472C33.5605 273.507 33.455 273.673 33.4902 273.839L45.8581 333.21C45.8983 333.376 46.0641 333.476 46.23 333.436C46.3858 333.396 46.4863 333.245 46.4561 333.089V333.084Z" fill="#EF4F59" stroke="#EF4F59" stroke-width="0.5" stroke-miterlimit="10"/>
<path d="M91.5504 376.15L46.3655 332.918C46.2348 332.807 46.0438 332.827 45.9333 332.953C45.8328 333.074 45.8378 333.245 45.9383 333.361L91.1232 376.593C91.2438 376.714 91.4398 376.704 91.5554 376.583C91.671 376.457 91.671 376.266 91.5453 376.15H91.5504Z" fill="#EF4F59" stroke="#EF4F59" stroke-width="0.5" stroke-miterlimit="10"/>
<path d="M12.6095 226.839L33.5108 273.895C33.5862 274.045 33.7671 274.111 33.9229 274.035C34.0687 273.965 34.134 273.794 34.0687 273.648L13.1673 226.592C13.097 226.442 12.911 226.371 12.7602 226.447C12.6145 226.517 12.5441 226.688 12.6095 226.844V226.839Z" fill="#EF4F59" stroke="#EF4F59" stroke-width="0.5" stroke-miterlimit="10"/>
<path d="M119.382 415.841L91.591 376.196C91.4905 376.055 91.3046 376.025 91.1639 376.12C91.0232 376.221 90.993 376.407 91.0885 376.548L118.88 416.194C118.98 416.334 119.166 416.365 119.307 416.269C119.448 416.168 119.478 415.982 119.382 415.836V415.841Z" fill="#EF4F59" stroke="#EF4F59" stroke-width="0.5" stroke-miterlimit="10"/>
<path d="M121.91 40.4927L82.741 79.3486C82.6254 79.4693 82.6254 79.6655 82.741 79.7812C82.8566 79.8969 83.0476 79.8969 83.1682 79.7812L122.332 40.9253C122.443 40.7945 122.433 40.6034 122.307 40.4927C122.192 40.3921 122.021 40.3921 121.905 40.4927H121.91Z" fill="#EF4F59" stroke="#EF4F59" stroke-width="0.5" stroke-miterlimit="10"/>
<path d="M38.4049 116.56L55.914 127.536C56.0598 127.617 56.2457 127.561 56.3261 127.415C56.3965 127.28 56.3613 127.114 56.2357 127.018L38.7266 116.036C38.5808 115.946 38.3949 115.991 38.3044 116.137C38.214 116.283 38.2592 116.469 38.4049 116.56Z" fill="#EF4F59" stroke="#EF4F59" stroke-width="0.5" stroke-miterlimit="10"/>
<path d="M13.1822 226.794L27.9072 173.817C27.9474 173.656 27.8418 173.485 27.681 173.45C27.5252 173.41 27.3644 173.505 27.3192 173.656L12.5942 226.628C12.549 226.789 12.6445 226.96 12.8053 227.005C12.9661 227.05 13.137 226.955 13.1873 226.794H13.1822Z" fill="#EF4F59" stroke="#EF4F59" stroke-width="0.5" stroke-miterlimit="10"/>
<path d="M14.2877 283.06L33.9125 274.051C34.0583 273.965 34.1085 273.784 34.0281 273.633C33.9578 273.502 33.7969 273.447 33.6612 273.497L14.0364 282.502C13.8806 282.573 13.8153 282.759 13.8856 282.91C13.956 283.065 14.1419 283.131 14.2927 283.06H14.2877Z" fill="#EF4F59" stroke="#EF4F59" stroke-width="0.5" stroke-miterlimit="10"/>
<path d="M70.8354 384.144L91.4452 376.669C91.601 376.608 91.6814 376.427 91.6211 376.266C91.5608 376.115 91.395 376.04 91.2392 376.09L70.6293 383.571C70.4685 383.631 70.3881 383.802 70.4534 383.968C70.5087 384.119 70.6846 384.199 70.8404 384.149L70.8354 384.144Z" fill="#EF4F59" stroke="#EF4F59" stroke-width="0.5" stroke-miterlimit="10"/>
<path d="M38.762 116.534L83.1479 79.8013C83.2735 79.6856 83.2836 79.4944 83.173 79.3687C83.0675 79.2479 82.8865 79.2329 82.7609 79.3284L38.3751 116.061C38.2494 116.177 38.2394 116.368 38.3499 116.494C38.4555 116.615 38.6364 116.63 38.762 116.534Z" fill="#EF4F59" stroke="#EF4F59" stroke-width="0.5" stroke-miterlimit="10"/>
<path d="M27.9122 173.792L38.8729 116.353C38.9031 116.187 38.7976 116.026 38.6317 115.991C38.4659 115.961 38.305 116.066 38.2699 116.232L27.3091 173.671C27.284 173.837 27.3996 173.993 27.5654 174.018C27.7262 174.043 27.872 173.938 27.9122 173.782V173.792Z" fill="#EF4F59" stroke="#EF4F59" stroke-width="0.5" stroke-miterlimit="10"/>
<path d="M46.4158 332.978L14.423 282.618C14.3225 282.482 14.1366 282.447 13.9958 282.542C13.8652 282.633 13.83 282.809 13.9054 282.945L45.8981 333.31C45.9886 333.456 46.1796 333.497 46.3253 333.406C46.4711 333.315 46.5113 333.124 46.4158 332.978Z" fill="#EF4F59" stroke="#EF4F59" stroke-width="0.5" stroke-miterlimit="10"/>
<path d="M71.0109 383.726L46.4358 333.008C46.3604 332.858 46.1795 332.792 46.0237 332.868C45.873 332.948 45.8076 333.124 45.883 333.28L70.458 383.993C70.5385 384.139 70.7244 384.199 70.8701 384.119C71.0109 384.043 71.0712 383.872 71.0058 383.726H71.0109Z" fill="#EF4F59" stroke="#EF4F59" stroke-width="0.5" stroke-miterlimit="10"/>
<path d="M83.2382 79.4493L76.3833 62.7077C76.318 62.5517 76.1421 62.4763 75.9863 62.5417C75.8305 62.6071 75.7551 62.7831 75.8204 62.9391L82.6753 79.6807C82.7407 79.8366 82.9165 79.9121 83.0723 79.8467C83.2281 79.7813 83.3035 79.6052 83.2382 79.4493Z" fill="#EF4F59" stroke="#EF4F59" stroke-width="0.5" stroke-miterlimit="10"/>
<path d="M10.3228 174.989L27.6309 174.039C27.7967 174.018 27.9173 173.862 27.8922 173.691C27.8721 173.546 27.7465 173.435 27.5957 173.425L10.2876 174.371C10.1168 174.381 9.98611 174.526 10.0012 174.692C10.0112 174.864 10.157 174.994 10.3228 174.979V174.989Z" fill="#EF4F59" stroke="#EF4F59" stroke-width="0.5" stroke-miterlimit="10"/>
<path d="M14.4638 282.774L13.1924 226.703C13.1924 226.532 13.0466 226.401 12.8758 226.401C12.7049 226.401 12.5742 226.547 12.5742 226.718L13.8457 282.784C13.8507 282.955 13.9965 283.085 14.1623 283.075C14.3231 283.065 14.4538 282.935 14.4538 282.774H14.4638Z" fill="#EF4F59" stroke="#EF4F59" stroke-width="0.5" stroke-miterlimit="10"/>
<path d="M32.8068 337.913L46.2502 333.431C46.411 333.376 46.4964 333.205 46.4411 333.044C46.3858 332.883 46.215 332.797 46.0542 332.853L32.6108 337.335C32.4499 337.39 32.3645 337.561 32.4148 337.722C32.47 337.883 32.6409 337.969 32.8017 337.913H32.8068Z" fill="#EF4F59" stroke="#EF4F59" stroke-width="0.5" stroke-miterlimit="10"/>
<path d="M119.302 415.766L70.906 383.601C70.7653 383.505 70.5743 383.545 70.4788 383.691C70.3833 383.832 70.4235 384.023 70.5642 384.114L118.96 416.274C119.101 416.37 119.292 416.334 119.388 416.189C119.483 416.048 119.443 415.856 119.302 415.766Z" fill="#EF4F59" stroke="#EF4F59" stroke-width="0.5" stroke-miterlimit="10"/>
<path d="M121.99 40.4374L75.9611 62.5516C75.8103 62.6271 75.75 62.8082 75.8254 62.9641C75.8958 63.11 76.0767 63.1754 76.2275 63.105L122.257 40.9907C122.402 40.9102 122.463 40.7241 122.382 40.5782C122.307 40.4374 122.141 40.382 121.995 40.4424L121.99 40.4374Z" fill="#EF4F59" stroke="#EF4F59" stroke-width="0.5" stroke-miterlimit="10"/>
<path d="M13.1919 226.698L10.6088 174.672C10.6038 174.501 10.458 174.371 10.2871 174.381C10.1163 174.391 9.98561 174.532 9.99566 174.703L12.5788 226.728C12.5889 226.899 12.7296 227.03 12.9004 227.02C13.0713 227.015 13.202 226.869 13.1919 226.698Z" fill="#EF4F59" stroke="#EF4F59" stroke-width="0.5" stroke-miterlimit="10"/>
<path d="M38.8178 116.474L76.3488 62.9993C76.4493 62.8635 76.4141 62.6673 76.2734 62.5717C76.1377 62.4711 75.9417 62.5063 75.8462 62.6472L38.3153 116.122C38.2148 116.258 38.25 116.454 38.3907 116.549C38.5264 116.65 38.7224 116.615 38.8178 116.474Z" fill="#EF4F59" stroke="#EF4F59" stroke-width="0.5" stroke-miterlimit="10"/>
<path d="M10.5792 174.818L38.8379 116.434C38.9083 116.278 38.8379 116.102 38.6821 116.026C38.5364 115.956 38.3605 116.021 38.2851 116.162L10.0263 174.552C9.95598 174.708 10.0263 174.884 10.1821 174.959C10.3279 175.03 10.5038 174.964 10.5792 174.823V174.818Z" fill="#EF4F59" stroke="#EF4F59" stroke-width="0.5" stroke-miterlimit="10"/>
<path d="M3.14132 238.158L13.1171 226.915C13.2327 226.789 13.2176 226.598 13.0919 226.482C12.9663 226.366 12.7753 226.381 12.6597 226.507L2.68399 237.75C2.5684 237.876 2.58348 238.067 2.70912 238.183C2.83476 238.299 3.02573 238.284 3.14132 238.158Z" fill="#EF4F59" stroke="#EF4F59" stroke-width="0.5" stroke-miterlimit="10"/>
<path d="M33.0032 337.521L14.4538 282.678C14.3985 282.517 14.2276 282.431 14.0668 282.487C13.906 282.537 13.8206 282.713 13.8708 282.874L32.4202 337.717C32.4755 337.878 32.6463 337.964 32.8072 337.908C32.968 337.858 33.0534 337.682 33.0032 337.521Z" fill="#EF4F59" stroke="#EF4F59" stroke-width="0.5" stroke-miterlimit="10"/>
<path d="M70.9712 383.666L32.9528 337.435C32.8422 337.305 32.6512 337.295 32.5206 337.405C32.4 337.511 32.3799 337.697 32.4804 337.823L70.4988 384.053C70.6043 384.184 70.8003 384.204 70.931 384.099C71.0617 383.993 71.0767 383.797 70.9712 383.666Z" fill="#EF4F59" stroke="#EF4F59" stroke-width="0.5" stroke-miterlimit="10"/>
<path d="M119.116 415.716L106.085 416.259C105.914 416.269 105.783 416.41 105.794 416.581C105.799 416.752 105.944 416.883 106.11 416.873L119.141 416.329C119.312 416.319 119.443 416.184 119.433 416.007C119.428 415.836 119.287 415.711 119.116 415.716Z" fill="#EF4F59" stroke="#EF4F59" stroke-width="0.5" stroke-miterlimit="10"/>
<path d="M14.4587 282.703L3.2115 237.881C3.1713 237.72 3.00043 237.62 2.83961 237.655C2.67879 237.695 2.57828 237.866 2.61346 238.027L13.8607 282.849C13.9009 283.01 14.0718 283.111 14.2376 283.065C14.3984 283.025 14.4939 282.859 14.4587 282.698V282.703Z" fill="#EF4F59" stroke="#EF4F59" stroke-width="0.5" stroke-miterlimit="10"/>
<path d="M33.9632 113.078L38.3807 116.545C38.5113 116.65 38.7073 116.625 38.8129 116.489C38.9134 116.358 38.8933 116.162 38.7576 116.057L34.3401 112.591C34.2094 112.485 34.0135 112.51 33.9079 112.646C33.8074 112.777 33.8275 112.973 33.9632 113.078Z" fill="#EF4F59" stroke="#EF4F59" stroke-width="0.5" stroke-miterlimit="10"/>
<path d="M106.301 416.339L70.9407 383.636C70.8151 383.525 70.6241 383.53 70.5085 383.656C70.3929 383.782 70.403 383.978 70.5286 384.089L105.894 416.792C106.024 416.898 106.22 416.878 106.321 416.747C106.416 416.626 106.406 416.455 106.301 416.344V416.339Z" fill="#EF4F59" stroke="#EF4F59" stroke-width="0.5" stroke-miterlimit="10"/>
<path d="M127.679 24.9936L75.9209 62.5767C75.7852 62.6774 75.755 62.8685 75.8505 63.0043C75.951 63.1402 76.142 63.1704 76.2777 63.0748L128.036 25.4916C128.167 25.386 128.187 25.1898 128.081 25.059C127.981 24.9383 127.81 24.9131 127.679 24.9936Z" fill="#EF4F59" stroke="#EF4F59" stroke-width="0.5" stroke-miterlimit="10"/>
<path d="M3.21674 237.992L10.6094 174.723C10.6244 174.557 10.4988 174.406 10.333 174.391C10.1721 174.376 10.0264 174.491 10.0013 174.652L2.60865 237.921C2.59357 238.087 2.71921 238.238 2.88506 238.253C3.04587 238.269 3.19162 238.153 3.21674 237.992Z" fill="#EF4F59" stroke="#EF4F59" stroke-width="0.5" stroke-miterlimit="10"/>
<path d="M16.6802 299.279L14.464 282.739C14.4438 282.573 14.2881 282.452 14.1172 282.477C13.9513 282.497 13.8307 282.653 13.8559 282.819L16.0772 299.359C16.1023 299.525 16.2531 299.646 16.4239 299.621C16.5898 299.601 16.7104 299.445 16.6853 299.279H16.6802Z" fill="#EF4F59" stroke="#EF4F59" stroke-width="0.5" stroke-miterlimit="10"/>
<path d="M34.3854 113.028L76.3338 63.0195C76.4394 62.8887 76.4193 62.6925 76.2836 62.5919C76.1529 62.4913 75.972 62.5064 75.8614 62.6322L33.913 112.641C33.8125 112.777 33.8427 112.968 33.9783 113.068C34.104 113.159 34.2799 113.144 34.3854 113.028Z" fill="#EF4F59" stroke="#EF4F59" stroke-width="0.5" stroke-miterlimit="10"/>
<path d="M10.5891 174.793L34.4354 112.938C34.4957 112.777 34.4153 112.606 34.2595 112.54C34.0987 112.48 33.9278 112.56 33.8625 112.716L10.0162 174.572C9.95587 174.733 10.0363 174.904 10.1921 174.969C10.3529 175.029 10.5238 174.949 10.5891 174.793Z" fill="#EF4F59" stroke="#EF4F59" stroke-width="0.5" stroke-miterlimit="10"/>
<path d="M70.9514 383.641L54.6535 367.136C54.5379 367.015 54.3369 367.015 54.2213 367.136C54.1007 367.256 54.1007 367.453 54.2213 367.568L70.5192 384.074C70.6348 384.194 70.8359 384.194 70.9514 384.074C71.0721 383.953 71.0721 383.757 70.9514 383.641Z" fill="#EF4F59" stroke="#EF4F59" stroke-width="0.5" stroke-miterlimit="10"/>
<path d="M166.276 443.283L106.23 416.284C106.069 416.224 105.898 416.304 105.833 416.465C105.778 416.606 105.843 416.772 105.979 416.842L166.024 443.841C166.185 443.902 166.356 443.821 166.421 443.665C166.477 443.519 166.416 443.358 166.276 443.283Z" fill="#EF4F59" stroke="#EF4F59" stroke-width="0.5" stroke-miterlimit="10"/>
<path d="M32.9926 337.506L16.6595 299.198C16.5891 299.042 16.4132 298.972 16.2574 299.037C16.1016 299.103 16.0313 299.284 16.0966 299.44L32.4297 337.747C32.5001 337.903 32.676 337.974 32.8318 337.908C32.9876 337.843 33.0579 337.662 32.9926 337.506Z" fill="#EF4F59" stroke="#EF4F59" stroke-width="0.5" stroke-miterlimit="10"/>
<path d="M54.683 367.176L32.9574 337.44C32.8569 337.305 32.6659 337.274 32.5302 337.375C32.3946 337.476 32.3644 337.667 32.4599 337.803L54.1854 367.538C54.2859 367.674 54.4769 367.704 54.6126 367.604C54.7483 367.503 54.7784 367.312 54.683 367.176Z" fill="#EF4F59" stroke="#EF4F59" stroke-width="0.5" stroke-miterlimit="10"/>
<path d="M76.2174 63.1051L83.5698 60.0264C83.7256 59.9611 83.801 59.785 83.7306 59.624C83.6653 59.4681 83.4894 59.3926 83.3286 59.463L75.9762 62.5417C75.8204 62.6071 75.75 62.7882 75.8154 62.9442C75.8807 63.1001 76.0616 63.1705 76.2174 63.1051Z" fill="#EF4F59" stroke="#EF4F59" stroke-width="0.5" stroke-miterlimit="10"/>
<path d="M12.373 181.041L10.604 174.602C10.5538 174.441 10.3829 174.345 10.2271 174.396C10.0713 174.441 9.97583 174.607 10.016 174.763L11.785 181.202C11.8303 181.363 11.9961 181.458 12.162 181.413C12.3228 181.368 12.4183 181.202 12.373 181.036V181.041Z" fill="#EF4F59" stroke="#EF4F59" stroke-width="0.5" stroke-miterlimit="10"/>
<path d="M16.6803 299.249L3.21177 237.886C3.17157 237.725 3.00573 237.619 2.84491 237.66C2.68409 237.7 2.58358 237.856 2.61373 238.022L16.0823 299.379C16.1225 299.55 16.2833 299.651 16.4441 299.611C16.6099 299.571 16.7155 299.41 16.6803 299.244V299.249Z" fill="#EF4F59" stroke="#EF4F59" stroke-width="0.5" stroke-miterlimit="10"/>
<path d="M127.669 24.9987L83.2634 59.5031C83.1327 59.6088 83.1076 59.7999 83.2132 59.9307C83.3137 60.0615 83.5046 60.0867 83.6403 59.9861L128.051 25.4816C128.182 25.381 128.212 25.1848 128.107 25.054C128.006 24.9232 127.81 24.893 127.679 24.9987H127.669Z" fill="#EF4F59" stroke="#EF4F59" stroke-width="0.5" stroke-miterlimit="10"/>
<path d="M106.311 416.339L54.6477 367.136C54.5271 367.02 54.3311 367.025 54.2155 367.151C54.0999 367.271 54.1049 367.468 54.2255 367.583L105.888 416.787C106.009 416.908 106.205 416.898 106.321 416.772C106.436 416.651 106.431 416.455 106.311 416.339Z" fill="#EF4F59" stroke="#EF4F59" stroke-width="0.5" stroke-miterlimit="10"/>
<path d="M3.21673 238.002L12.3783 181.167C12.4035 181.001 12.2929 180.845 12.122 180.815C11.9562 180.789 11.8004 180.9 11.7702 181.071L2.60863 237.906C2.58853 238.072 2.70914 238.223 2.88001 238.243C3.04083 238.263 3.18155 238.158 3.2117 238.002H3.21673Z" fill="#EF4F59" stroke="#EF4F59" stroke-width="0.5" stroke-miterlimit="10"/>
<path d="M34.375 113.043L83.6708 59.956C83.7864 59.8303 83.7713 59.6391 83.6457 59.5234C83.5251 59.4127 83.3341 59.4228 83.2185 59.5385L33.9227 112.626C33.8121 112.757 33.8222 112.948 33.9528 113.058C34.0735 113.164 34.2544 113.159 34.37 113.043H34.375Z" fill="#EF4F59" stroke="#EF4F59" stroke-width="0.5" stroke-miterlimit="10"/>
<path d="M12.3676 181.217L34.445 112.928C34.5003 112.767 34.4098 112.596 34.249 112.54C34.0882 112.485 33.9173 112.575 33.862 112.736L11.7847 181.026C11.7394 181.187 11.8349 181.358 11.9958 181.403C12.1515 181.443 12.3124 181.363 12.3626 181.212L12.3676 181.217Z" fill="#EF4F59" stroke="#EF4F59" stroke-width="0.5" stroke-miterlimit="10"/>
<path d="M54.7029 367.206L16.6493 299.168C16.5639 299.022 16.3779 298.967 16.2322 299.052C16.0865 299.138 16.0312 299.319 16.1166 299.47L54.1702 367.508C54.2607 367.654 54.4517 367.694 54.5924 367.604C54.723 367.518 54.7683 367.352 54.7029 367.216V367.206Z" fill="#EF4F59" stroke="#EF4F59" stroke-width="0.5" stroke-miterlimit="10"/>
<path d="M158.23 433.463L106.19 416.274C106.03 416.219 105.859 416.309 105.803 416.465C105.748 416.626 105.839 416.797 105.999 416.852L158.039 434.042C158.2 434.097 158.371 434.007 158.426 433.851C158.481 433.69 158.391 433.514 158.23 433.463Z" fill="#EF4F59" stroke="#EF4F59" stroke-width="0.5" stroke-miterlimit="10"/>
<path d="M17.3529 249.788L3.11041 237.72C2.97975 237.609 2.78877 237.629 2.67821 237.76C2.56765 237.891 2.58775 238.082 2.71842 238.193L16.9609 250.261C17.0966 250.362 17.2875 250.332 17.3881 250.196C17.4785 250.075 17.4634 249.904 17.3529 249.798V249.788Z" fill="#EF4F59" stroke="#EF4F59" stroke-width="0.5" stroke-miterlimit="10"/>
<path d="M106.376 416.445L94.9231 388.078C94.8527 387.927 94.6668 387.862 94.511 387.937C94.3703 388.002 94.2999 388.163 94.3502 388.309L105.803 416.676C105.874 416.827 106.06 416.893 106.216 416.817C106.356 416.752 106.427 416.591 106.376 416.445Z" fill="#EF4F59" stroke="#EF4F59" stroke-width="0.5" stroke-miterlimit="10"/>
<path d="M46.6476 118.813L34.2897 112.56C34.1339 112.495 33.958 112.57 33.8876 112.721C33.8273 112.862 33.8826 113.023 34.0133 113.104L46.3712 119.362C46.5219 119.437 46.7079 119.377 46.7833 119.226C46.8586 119.075 46.7983 118.889 46.6476 118.813Z" fill="#EF4F59" stroke="#EF4F59" stroke-width="0.5" stroke-miterlimit="10"/>
<path d="M16.6844 299.324L17.4634 250.03C17.4634 249.859 17.3227 249.728 17.1518 249.728C16.9809 249.728 16.8553 249.859 16.8503 250.02L16.0713 299.314C16.0713 299.485 16.202 299.621 16.3728 299.621C16.5437 299.621 16.6794 299.49 16.6844 299.319V299.324Z" fill="#EF4F59" stroke="#EF4F59" stroke-width="0.5" stroke-miterlimit="10"/>
<path d="M94.7824 387.927L54.5779 367.085C54.4221 367.015 54.2462 367.09 54.1758 367.246C54.1155 367.387 54.1708 367.548 54.2964 367.629L94.501 388.47C94.6518 388.551 94.8327 388.49 94.9131 388.339C94.9885 388.188 94.9332 388.007 94.7824 387.927Z" fill="#EF4F59" stroke="#EF4F59" stroke-width="0.5" stroke-miterlimit="10"/>
<path d="M146.078 29.828L83.3188 59.468C83.168 59.5384 83.0977 59.7245 83.1731 59.8754C83.2434 60.0263 83.4294 60.0968 83.5801 60.0213L146.334 30.3814C146.485 30.3059 146.545 30.1198 146.465 29.9689C146.395 29.823 146.219 29.7626 146.068 29.828H146.078Z" fill="#EF4F59" stroke="#EF4F59" stroke-width="0.5" stroke-miterlimit="10"/>
<path d="M16.1975 299.571L45.3558 320.407C45.4965 320.503 45.6875 320.468 45.783 320.327C45.8785 320.191 45.8483 320 45.7126 319.904L16.5543 299.068C16.4186 298.967 16.2226 299.002 16.1271 299.138C16.0266 299.274 16.0618 299.47 16.1975 299.571Z" fill="#EF4F59" stroke="#EF4F59" stroke-width="0.5" stroke-miterlimit="10"/>
<path d="M46.7675 119.246L83.7105 59.9055C83.801 59.7596 83.7557 59.5735 83.61 59.483C83.4642 59.3924 83.2783 59.4377 83.1878 59.5836L46.2449 118.924C46.1544 119.07 46.1996 119.256 46.3454 119.346C46.4911 119.437 46.6771 119.392 46.7675 119.246Z" fill="#EF4F59" stroke="#EF4F59" stroke-width="0.5" stroke-miterlimit="10"/>
<path d="M17.4588 250L12.378 181.101C12.3679 180.935 12.2172 180.804 12.0463 180.82C11.8804 180.83 11.7498 180.981 11.7649 181.152L16.8457 250.05C16.8558 250.216 17.0065 250.347 17.1774 250.332C17.3432 250.321 17.4739 250.171 17.4588 250Z" fill="#EF4F59" stroke="#EF4F59" stroke-width="0.5" stroke-miterlimit="10"/>
<path d="M54.7386 367.297L45.8434 320.095C45.8082 319.929 45.6474 319.818 45.4815 319.854C45.3207 319.884 45.2102 320.04 45.2403 320.206L54.1406 367.412C54.1758 367.578 54.3366 367.684 54.5024 367.644C54.6633 367.609 54.7688 367.458 54.7437 367.297H54.7386Z" fill="#EF4F59" stroke="#EF4F59" stroke-width="0.5" stroke-miterlimit="10"/>
<path d="M12.3423 181.272L46.7725 119.231C46.8479 119.08 46.7926 118.899 46.6418 118.818C46.4961 118.743 46.3202 118.793 46.2398 118.934L11.8046 180.976C11.7242 181.121 11.7795 181.308 11.9252 181.393C12.0709 181.474 12.2569 181.418 12.3373 181.277L12.3423 181.272Z" fill="#EF4F59" stroke="#EF4F59" stroke-width="0.5" stroke-miterlimit="10"/>
<path d="M158.315 433.504L94.822 387.952C94.6813 387.857 94.4903 387.897 94.3948 388.043C94.3094 388.173 94.3345 388.355 94.4602 388.45L157.953 434.002C158.089 434.102 158.285 434.072 158.38 433.931C158.481 433.795 158.451 433.604 158.31 433.504H158.315Z" fill="#EF4F59" stroke="#EF4F59" stroke-width="0.5" stroke-miterlimit="10"/>
<path d="M83.2888 60.0062L107.703 74.63C107.854 74.7155 108.05 74.6551 108.13 74.4992C108.206 74.3533 108.16 74.1772 108.025 74.0867L83.6054 59.478C83.4597 59.3925 83.2737 59.4478 83.1883 59.5937C83.1079 59.7345 83.1531 59.9156 83.2888 60.0062Z" fill="#EF4F59" stroke="#EF4F59" stroke-width="0.5" stroke-miterlimit="10"/>
<path d="M37.9331 193.411L12.2072 180.845C12.0564 180.769 11.8755 180.835 11.7951 180.986C11.7197 181.137 11.7851 181.318 11.9358 181.398L37.6517 193.98C37.8125 194.05 37.9984 193.97 38.0638 193.814C38.1291 193.668 38.0638 193.497 37.9281 193.416L37.9331 193.411Z" fill="#EF4F59" stroke="#EF4F59" stroke-width="0.5" stroke-miterlimit="10"/>
<path d="M16.8712 250.135L45.2556 320.266C45.3209 320.427 45.4968 320.498 45.6576 320.437C45.8185 320.377 45.8939 320.196 45.8285 320.035L17.4441 249.909C17.3737 249.753 17.1928 249.683 17.0421 249.753C16.8963 249.819 16.8209 249.985 16.8812 250.141L16.8712 250.135Z" fill="#EF4F59" stroke="#EF4F59" stroke-width="0.5" stroke-miterlimit="10"/>
<path d="M94.8874 388.023L45.7876 319.969C45.6871 319.834 45.4961 319.803 45.3554 319.904C45.2197 320.005 45.1896 320.196 45.2851 320.337L94.3899 388.38C94.4955 388.516 94.6864 388.536 94.8171 388.435C94.9427 388.334 94.9729 388.158 94.8824 388.028L94.8874 388.023Z" fill="#EF4F59" stroke="#EF4F59" stroke-width="0.5" stroke-miterlimit="10"/>
<path d="M145.972 29.9086L107.627 74.1522C107.522 74.288 107.542 74.4842 107.683 74.5949C107.813 74.6955 107.994 74.6804 108.105 74.5647L146.44 30.306C146.55 30.1752 146.53 29.9841 146.4 29.8734C146.274 29.7677 146.083 29.7828 145.972 29.9036V29.9086Z" fill="#EF4F59" stroke="#EF4F59" stroke-width="0.5" stroke-miterlimit="10"/>
<path d="M46.6877 119.331L108.05 74.6148C108.191 74.5142 108.221 74.313 108.12 74.1722C108.02 74.0313 107.819 74.0011 107.678 74.1017L46.3258 118.838C46.1952 118.949 46.1801 119.14 46.2906 119.271C46.3912 119.387 46.557 119.412 46.6877 119.331Z" fill="#EF4F59" stroke="#EF4F59" stroke-width="0.5" stroke-miterlimit="10"/>
<path d="M17.444 250.13L38.094 193.804C38.1543 193.643 38.0689 193.456 37.9031 193.396C37.7422 193.336 37.5563 193.421 37.496 193.587L16.866 249.919C16.8107 250.08 16.8912 250.251 17.052 250.307C17.2078 250.367 17.3837 250.286 17.4389 250.13H17.444Z" fill="#EF4F59" stroke="#EF4F59" stroke-width="0.5" stroke-miterlimit="10"/>
<path d="M38.1089 193.733L46.8082 119.12C46.8283 118.954 46.7076 118.803 46.5368 118.783C46.3709 118.763 46.2202 118.884 46.2001 119.055L37.4807 193.663C37.4606 193.839 37.5812 193.995 37.7571 194.01C37.933 194.03 38.0888 193.909 38.1039 193.733H38.1089Z" fill="#EF4F59" stroke="#EF4F59" stroke-width="0.5" stroke-miterlimit="10"/>
<path d="M151.873 395.765L94.6866 387.897C94.5207 387.882 94.37 388.002 94.3549 388.173C94.3398 388.334 94.4504 388.475 94.6062 388.505L151.792 396.403C151.968 396.424 152.129 396.303 152.154 396.127C152.179 395.951 152.053 395.79 151.883 395.765H151.873Z" fill="#EF4F59" stroke="#EF4F59" stroke-width="0.5" stroke-miterlimit="10"/>
<path d="M78.359 136.365L46.6527 118.818C46.5069 118.733 46.321 118.793 46.2355 118.939C46.1501 119.085 46.2104 119.271 46.3561 119.357L78.0424 136.933C78.2032 137.014 78.3941 136.953 78.4796 136.792C78.555 136.642 78.5047 136.455 78.359 136.365Z" fill="#EF4F59" stroke="#EF4F59" stroke-width="0.5" stroke-miterlimit="10"/>
<path d="M17.077 250.321L59.93 261.62C60.1059 261.655 60.2768 261.535 60.3119 261.358C60.3421 261.197 60.2516 261.042 60.1009 260.991L17.2328 249.728C17.0719 249.688 16.9011 249.788 16.8558 249.949C16.8156 250.115 16.9111 250.281 17.077 250.327V250.321Z" fill="#EF4F59" stroke="#EF4F59" stroke-width="0.5" stroke-miterlimit="10"/>
<path d="M94.9485 388.229L99.773 333.416C99.773 333.235 99.6273 333.084 99.4514 333.084C99.2906 333.084 99.1499 333.195 99.1247 333.361L94.3404 388.178C94.3303 388.349 94.461 388.485 94.6319 388.495C94.7927 388.505 94.9284 388.39 94.9485 388.229Z" fill="#EF4F59" stroke="#EF4F59" stroke-width="0.5" stroke-miterlimit="10"/>
<path d="M59.6987 261.228L45.2402 320.08C45.205 320.246 45.3105 320.412 45.4764 320.447C45.6372 320.483 45.793 320.387 45.8382 320.226L60.332 261.384C60.3722 261.208 60.2666 261.032 60.0907 260.986C59.9148 260.946 59.7389 261.052 59.6937 261.228H59.6987Z" fill="#EF4F59" stroke="#EF4F59" stroke-width="0.5" stroke-miterlimit="10"/>
<path d="M45.4666 320.457L99.3658 333.703C99.5417 333.738 99.7126 333.617 99.7478 333.441C99.7779 333.275 99.6824 333.119 99.5216 333.069L45.6073 319.859C45.4415 319.813 45.2756 319.919 45.2354 320.085C45.1952 320.256 45.2957 320.422 45.4616 320.457H45.4666Z" fill="#EF4F59" stroke="#EF4F59" stroke-width="0.5" stroke-miterlimit="10"/>
<path d="M107.944 74.6651L181.9 55.9314C182.071 55.8861 182.177 55.7101 182.132 55.539C182.086 55.368 181.911 55.2623 181.74 55.3076L107.788 74.0564C107.623 74.0967 107.517 74.2727 107.562 74.4388C107.602 74.6048 107.778 74.7104 107.944 74.6651Z" fill="#EF4F59" stroke="#EF4F59" stroke-width="0.5" stroke-miterlimit="10"/>
<path d="M78.4998 136.787L108.151 74.4942C108.226 74.3383 108.156 74.1471 108.005 74.0716C107.849 73.9962 107.658 74.0616 107.583 74.2175L77.9169 136.501C77.8465 136.662 77.9169 136.858 78.0777 136.928C78.2385 136.999 78.4245 136.928 78.4998 136.782V136.787Z" fill="#EF4F59" stroke="#EF4F59" stroke-width="0.5" stroke-miterlimit="10"/>
<path d="M77.9416 136.46L37.5411 193.512C37.4456 193.658 37.4858 193.854 37.6315 193.949C37.7722 194.04 37.9532 194.01 38.0587 193.879L78.4743 136.838C78.5698 136.687 78.5296 136.486 78.3738 136.39C78.2331 136.299 78.0471 136.335 77.9466 136.46H77.9416Z" fill="#EF4F59" stroke="#EF4F59" stroke-width="0.5" stroke-miterlimit="10"/>
<path d="M37.4957 193.793L59.7087 261.409C59.764 261.58 59.95 261.671 60.1208 261.615C60.2917 261.56 60.3822 261.374 60.3269 261.203L38.0988 193.592C38.0385 193.431 37.8575 193.346 37.6917 193.406C37.5359 193.461 37.4505 193.633 37.5007 193.788L37.4957 193.793Z" fill="#EF4F59" stroke="#EF4F59" stroke-width="0.5" stroke-miterlimit="10"/>
<path d="M152.073 395.88L99.6918 333.17C99.5763 333.029 99.3702 333.019 99.2345 333.129C99.0938 333.25 99.0787 333.451 99.1943 333.587L151.586 396.283C151.706 396.414 151.908 396.419 152.038 396.303C152.159 396.192 152.174 396.006 152.078 395.875L152.073 395.88Z" fill="#EF4F59" stroke="#EF4F59" stroke-width="0.5" stroke-miterlimit="10"/>
<path d="M143.495 121.022L108.115 74.1671C108.01 74.0313 107.809 74.0061 107.673 74.1118C107.542 74.2174 107.512 74.4086 107.613 74.5444L142.957 121.424C143.073 121.57 143.279 121.6 143.43 121.489C143.576 121.374 143.606 121.167 143.495 121.017V121.022Z" fill="#EF4F59" stroke="#EF4F59" stroke-width="0.5" stroke-miterlimit="10"/>
<path d="M97.1494 199.644L37.8276 193.381C37.6517 193.371 37.5009 193.497 37.4908 193.673C37.4808 193.839 37.5964 193.985 37.7622 194.005L97.079 200.308C97.265 200.328 97.4308 200.192 97.4509 200.006C97.471 199.82 97.3353 199.654 97.1494 199.634V199.644Z" fill="#EF4F59" stroke="#EF4F59" stroke-width="0.5" stroke-miterlimit="10"/>
<path d="M59.7292 261.459L99.1548 333.537C99.2403 333.698 99.4413 333.753 99.5971 333.667C99.7579 333.577 99.8132 333.376 99.7277 333.22L60.2971 261.147C60.2067 260.991 60.0107 260.936 59.8549 261.027C59.7091 261.112 59.6488 261.303 59.7292 261.454V261.459Z" fill="#EF4F59" stroke="#EF4F59" stroke-width="0.5" stroke-miterlimit="10"/>
<path d="M143.148 120.901L78.1326 136.335C77.9567 136.375 77.8511 136.551 77.8913 136.727C77.9315 136.903 78.1074 137.009 78.2833 136.968L143.309 121.56C143.485 121.505 143.586 121.318 143.535 121.137C143.485 120.976 143.324 120.876 143.153 120.906L143.148 120.901Z" fill="#EF4F59" stroke="#EF4F59" stroke-width="0.5" stroke-miterlimit="10"/>
<path d="M97.4406 199.885L78.5143 136.556C78.459 136.385 78.2731 136.294 78.1022 136.35C77.9414 136.405 77.8459 136.576 77.8911 136.737L96.7923 200.072C96.8476 200.248 97.0335 200.353 97.2144 200.298C97.3903 200.243 97.4959 200.056 97.4406 199.875V199.885Z" fill="#EF4F59" stroke="#EF4F59" stroke-width="0.5" stroke-miterlimit="10"/>
<path d="M96.8273 199.81L59.7386 261.137C59.6532 261.293 59.7034 261.494 59.8592 261.585C60.01 261.671 60.201 261.62 60.2964 261.479L97.4053 200.167C97.4957 200.006 97.4455 199.8 97.2796 199.709C97.1238 199.619 96.9228 199.669 96.8273 199.82V199.81Z" fill="#EF4F59" stroke="#EF4F59" stroke-width="0.5" stroke-miterlimit="10"/>
<path d="M173.864 335.162L99.4505 333.054C99.2696 333.059 99.1289 333.215 99.1339 333.391C99.1389 333.557 99.2646 333.693 99.4304 333.708L173.844 335.841C174.03 335.841 174.191 335.695 174.191 335.509C174.191 335.323 174.045 335.162 173.859 335.162H173.864Z" fill="#EF4F59" stroke="#EF4F59" stroke-width="0.5" stroke-miterlimit="10"/>
<path d="M130.473 269.287L60.0552 260.981C59.8793 260.966 59.7185 261.097 59.7034 261.278C59.6883 261.449 59.809 261.605 59.9798 261.63L130.393 269.966C130.579 269.986 130.75 269.855 130.77 269.664C130.795 269.478 130.659 269.307 130.468 269.287H130.473Z" fill="#EF4F59" stroke="#EF4F59" stroke-width="0.5" stroke-miterlimit="10"/>
<path d="M130.128 269.473L99.155 333.24C99.0846 333.406 99.155 333.597 99.3258 333.673C99.4816 333.738 99.6626 333.673 99.743 333.527L130.746 269.78C130.831 269.609 130.756 269.403 130.585 269.322C130.414 269.237 130.208 269.312 130.128 269.483V269.473Z" fill="#EF4F59" stroke="#EF4F59" stroke-width="0.5" stroke-miterlimit="10"/>
<path d="M97.4054 200.152L143.51 121.399C143.595 121.238 143.535 121.032 143.364 120.941C143.213 120.861 143.023 120.911 142.927 121.057L96.8174 199.81C96.7219 199.971 96.7772 200.177 96.938 200.268C97.0988 200.358 97.3049 200.308 97.3954 200.147L97.4054 200.152Z" fill="#EF4F59" stroke="#EF4F59" stroke-width="0.5" stroke-miterlimit="10"/>
<path d="M130.74 269.478L97.4209 199.835C97.3405 199.669 97.1394 199.594 96.9686 199.674C96.8027 199.755 96.7273 199.956 96.8077 200.127L130.117 269.77C130.213 269.936 130.419 269.991 130.585 269.896C130.73 269.81 130.796 269.634 130.73 269.478H130.74Z" fill="#EF4F59" stroke="#EF4F59" stroke-width="0.5" stroke-miterlimit="10"/>
<path d="M175.473 196.233L97.1044 199.644C96.9184 199.649 96.7727 199.805 96.7827 199.991C96.7928 200.177 96.9435 200.323 97.1295 200.313L175.498 196.922C175.694 196.912 175.835 196.746 175.825 196.555C175.815 196.364 175.654 196.223 175.468 196.228L175.473 196.233Z" fill="#EF4F59" stroke="#EF4F59" stroke-width="0.5" stroke-miterlimit="10"/>
</g>
<defs>
<clipPath id="clip0_4113_35426">
<rect width="455" height="453" fill="white" transform="translate(0 0.5)"/>
</clipPath>
</defs>
</svg>
